#!OML:ASF H:\Pregnant\Project 1\Capture day 1\Session 1\femalepreg.ASF
:FULLY-SPECIFIED
:DEGREES
728
root 20.1276 15.559 3.9913 -339.588 -7.03936 -1.19258
lowerback -10.6016 -1.29278 -7.18671
upperback -4.6167 -0.966292 -3.45699
thorax 1.16564 -0.436675 0.330278
lowerneck -18.5877 -2.26758 1.58072
upperneck 23.8118 -4.49939 2.87425
head 10.7955 -1.56028 0.109147
rclavicle -4.57205e-015 1.74931e-014
rhumerus -48.1817 -9.09603 -74.4563
rradius 16.1379
rwrist 10.6692
rhand -21.5819 -27.1306
rfingers 7.12502
rthumb 4.81244 -57.056
lclavicle -4.57205e-015 1.74931e-014
lhumerus -18.2297 -7.944 80.9679
lradius 52.7478
lwrist 53.7629
lhand -30.6853 -7.73318
lfingers 7.12502
lthumb -3.97929 22.2094
rfemur -55.2219 9.0919 22.0859
rtibia 57.5024
rfoot -7.73135 -16.794
rtoes -11.3454
lfemur -35.5071 -11.5985 -18.4859
ltibia 34.6041
lfoot -15.8365 -1.58955
ltoes -24.2896
729
root 20.1079 15.5687 4.11768 -339.348 -6.54257 -1.21155
lowerback -10.667 -1.46234 -7.24941
upperback -4.6129 -1.18045 -3.25617
thorax 1.22267 -0.541993 0.547386
lowerneck -18.731 -2.22116 1.61865
upperneck 23.6781 -4.41952 2.79101
head 10.7695 -1.53154 0.0835281
rclavicle 3.18055e-015 -2.38542e-014
rhumerus -48.9199 -7.35626 -75.2409
rradius 16.9073
rwrist 8.75056
rhand -21.6437 -26.3624
rfingers 7.12502
rthumb 4.75278 -56.2891
lclavicle 3.18055e-015 -2.38542e-014
lhumerus -17.7243 -8.15156 81.3364
lradius 54.4467
lwrist 54.0648
lhand -30.8318 -7.67111
lfingers 7.12502
lthumb -4.12075 22.2688
rfemur -55.8549 9.28459 21.7438
rtibia 55.4128
rfoot -7.56289 -16.9252
rtoes -11.4933
lfemur -35.1582 -11.7287 -18.4384
ltibia 34.2967
lfoot -16.0518 -1.85286
ltoes -24.2381
730
root 20.0874 15.5784 4.24415 -339.12 -6.05176 -1.19918
lowerback -10.7378 -1.63752 -7.31416
upperback -4.61247 -1.40129 -3.07461
thorax 1.281 -0.650888 0.744058
lowerneck -18.8368 -2.17659 1.6715
upperneck 23.5554 -4.34729 2.70965
head 10.7403 -1.50505 0.055454
rclavicle 1.88845e-014 0
rhumerus -49.6549 -5.71886 -76.0254
rradius 17.6852
rwrist 6.71584
rhand -21.4971 -25.3939
rfingers 7.12502
rthumb 4.8944 -55.3174
lclavicle 1.88845e-014 0
lhumerus -17.2828 -8.41148 81.6566
lradius 56.1201
lwrist 54.13
lhand -30.8495 -7.84719
lfingers 7.12502
lthumb -4.13777 22.0924
rfemur -56.424 9.49444 21.3115
rtibia 53.275
rfoot -7.37856 -17.0224
rtoes -11.7664
lfemur -34.7598 -11.853 -18.4178
ltibia 33.9161
lfoot -16.2405 -2.14059
ltoes -24.1829
731
root 20.0663 15.588 4.3712 -338.916 -5.57424 -1.15867
lowerback -10.8102 -1.81278 -7.37819
upperback -4.60245 -1.6212 -2.91118
thorax 1.35146 -0.760098 0.92071
lowerneck -18.9629 -2.13632 1.73879
upperneck 23.4697 -4.28771 2.62537
head 10.7285 -1.48235 0.021738
rclavicle -1.96797e-014 1.90833e-014
rhumerus -50.3673 -4.27574 -76.7184
rradius 18.4463
rwrist 4.78584
rhand -21.1448 -24.2257
rfingers 7.12502
rthumb 5.23458 -54.1411
lclavicle -1.96797e-014 1.90833e-014
lhumerus -16.8914 -8.71772 81.9284
lradius 57.7691
lwrist 53.9761
lhand -30.7283 -8.24543
lfingers 7.12502
lthumb -4.02079 21.6964
rfemur -56.9172 9.73184 20.7898
rtibia 51.1111
rfoot -7.18439 -17.1281
rtoes -12.0899
lfemur -34.3009 -11.972 -18.4258
ltibia 33.4718
lfoot -16.4039 -2.45236
ltoes -24.1097
732
root 20.045 15.5974 4.50036 -338.795 -5.13301 -1.10519
lowerback -10.856 -1.96127 -7.41544
upperback -4.56787 -1.80888 -2.77937
thorax 1.43083 -0.854621 1.05331
lowerneck -19.0909 -2.10362 1.83189
upperneck 23.4288 -4.24991 2.54259
head 10.7334 -1.4661 -0.0191163
rclavicle -1.15295e-014 -1.27222e-014
rhumerus -51.0689 -3.07695 -77.2895
rradius 19.1753
rwrist 3.04917
rhand -20.6234 -22.9023
rfingers 7.12502
rthumb 5.73792 -52.8046
lclavicle -1.15295e-014 -1.27222e-014
lhumerus -16.562 -9.09323 82.1514
lradius 59.4045
lwrist 53.63
lhand -30.5265 -8.70784
lfingers 7.12502
lthumb -3.82589 21.2376
rfemur -57.2651 10.0223 20.1984
rtibia 48.9431
rfoot -6.98855 -17.2692
rtoes -12.3659
lfemur -33.6983 -12.0763 -18.4695
ltibia 32.9636
lfoot -16.5464 -2.76459
ltoes -24.0315
733
root 20.0231 15.6059 4.62957 -338.684 -4.69086 -1.02193
lowerback -10.8942 -2.14999 -7.48556
upperback -4.52717 -2.04723 -2.63824
thorax 1.51853 -0.974473 1.20693
lowerneck -19.2856 -2.038 1.98541
upperneck 23.4487 -4.18006 2.42158
head 10.7712 -1.43245 -0.0800463
rclavicle -1.21259e-014 6.36111e-014
rhumerus -51.6821 -2.02829 -77.7366
rradius 19.8543
rwrist 1.54011
rhand -19.948 -21.4393
rfingers 7.12502
rthumb 6.39006 -51.3229
lclavicle -1.21259e-014 6.36111e-014
lhumerus -16.3001 -9.41362 82.3032
lradius 61.0376
lwrist 53.1284
lhand -30.3201 -9.21143
lfingers 7.12502
lthumb -3.62661 20.7375
rfemur -57.5698 10.3504 19.5034
rtibia 46.8135
rfoot -6.81792 -17.4806
rtoes -12.4169
lfemur -33.0611 -12.1786 -18.5395
ltibia 32.4064
lfoot -16.6515 -3.11378
ltoes -23.9188
734
root 20.0016 15.6151 4.76172 -338.606 -4.2688 -0.916056
lowerback -10.9339 -2.36695 -7.5748
upperback -4.48778 -2.32132 -2.48846
thorax 1.61111 -1.11217 1.37472
lowerneck -19.5038 -1.93787 2.19617
upperneck 23.5336 -4.07381 2.26126
head 10.8356 -1.3804 -0.159823
rclavicle -2.8625e-014 1.90833e-014
rhumerus -52.246 -1.07274 -78.0886
rradius 20.5011
rwrist 0.179346
rhand -19.1532 -19.9304
rfingers 7.12502
rthumb 7.15723 -49.7893
lclavicle -2.8625e-014 1.90833e-014
lhumerus -16.1551 -9.68386 82.3975
lradius 62.6846
lwrist 52.4957
lhand -30.1702 -9.62467
lfingers 7.12502
lthumb -3.48186 20.3266
rfemur -57.8043 10.7206 18.7174
rtibia 44.766
rfoot -6.67541 -17.765
rtoes -12.2804
lfemur -32.3503 -12.2864 -18.6462
ltibia 31.8214
lfoot -16.7385 -3.44886
ltoes -23.8173
